<?xml version="1.0" encoding="UTF-8"?>
<svg id="Layer_1" data-name="Layer 1" xmlns="http://www.w3.org/2000/svg" width="255" height="53" xmlns:xlink="http://www.w3.org/1999/xlink" viewBox="0 0 255 53">
  <defs>
    <style>
      .cls-1 {
        fill: #fff;
      }

      .cls-2 {
        fill: none;
      }

      .cls-3 {
        clip-path: url(#clippath-1);
      }

      .cls-4, .cls-5 {
        fill: #761fe3;
      }

      .cls-5 {
        isolation: isolate;
        opacity: .5;
      }

      .cls-6 {
        clip-path: url(#clippath);
      }
    </style>
    <clipPath id="clippath">
      <rect class="cls-2" x=".55" width="53.53" height="52.44"/>
    </clipPath>
    <clipPath id="clippath-1">
      <rect class="cls-2" x="87.25" y="11.08" width="8" height="7.84"/>
    </clipPath>
  </defs>
  <g class="cls-6">
    <g>
      <path class="cls-4" d="M4.1,30.66c.37.42.56.95.53,1.46-.02.53-.23,1.04-.65,1.41-.83.77-2.11.72-2.87-.12-.37-.42-.56-.95-.53-1.46.02-.51.23-1.04.65-1.41.81-.79,2.11-.72,2.87.12Z"/>
      <path class="cls-4" d="M32.71,17.76s-.02.12-.02.16c-.02.46.07.93.26,1.35l-6.31,5.82-6.31,5.82c-.46-.26-.97-.37-1.48-.37l-6.82-19.88c.28-.16.56-.35.81-.58.26-.23.46-.49.63-.77l19.24,8.44Z"/>
      <path class="cls-4" d="M6.28,33.26l9.71.9c.12.49.35.95.72,1.35.37.42.83.67,1.32.83l.21,7.77.09,3.39c-.28.12-.56.28-.79.46l-12.15-13.2c.39-.44.7-.95.88-1.51Z"/>
      <path class="cls-5" d="M10.06,11.13h.19l6.86,19.99c-.07.05-.14.12-.23.19-.3.28-.56.63-.72,1l-9.74-.9c-.12-.74-.46-1.44-.97-2.02-.51-.53-1.14-.93-1.83-1.11l5.63-17.28c.26.09.53.14.81.14Z"/>
      <path class="cls-4" d="M21.81,33.81c.05-.51-.02-1.07-.26-1.55l12.63-11.64c.46.26,1,.39,1.51.37l7.3,20.5c-.28.14-.53.32-.77.56-.23.21-.44.46-.6.72l-19.82-8.95Z"/>
      <path class="cls-4" d="M32.29,4.68c.58.63,1.32,1.04,2.16,1.18v.32l.21,9.04c-.37.14-.72.32-1.02.6-.07.07-.14.14-.21.21l-6.58-2.88-12.77-5.59c0-.07.02-.12.02-.19,0-.26,0-.53-.05-.79l17.25-3.99c.12.77.46,1.48,1,2.06Z"/>
      <path class="cls-5" d="M49.4,17.53c-.37.32-.65.72-.86,1.16l-10.02-1.23c-.09-.51-.35-1.02-.72-1.44-.37-.39-.83-.67-1.32-.83l-.21-9.32v-.12c.56-.16,1.07-.46,1.48-.86l11.64,12.64Z"/>
      <path class="cls-4" d="M45.04,41.03h-.23l-7.35-20.64c.07-.05.14-.09.19-.16.3-.28.51-.58.67-.93l9.83,1.21c.02.95.37,1.83,1.02,2.53.49.53,1.09.9,1.76,1.09l-5.17,17c-.21-.05-.46-.09-.72-.09Z"/>
      <path class="cls-5" d="M21.81,48.26c-.46-.49-1.04-.81-1.65-.95l-.28-11.04c.37-.14.72-.32,1.02-.6.07-.05.12-.12.19-.19l19.96,9.02c0,.07-.02.16-.02.23,0,.26,0,.51.05.77l-18.52,4.13c-.14-.51-.37-.97-.74-1.37Z"/>
      <path class="cls-5" d="M12.24,7.33c-.02.53-.23,1.04-.65,1.41-.83.77-2.11.72-2.87-.12-.37-.42-.56-.95-.53-1.46.02-.53.23-1.04.65-1.41.83-.77,2.11-.72,2.87.12.39.42.56.95.53,1.46Z"/>
      <path class="cls-4" d="M36.53,3.55c-.83.77-2.11.72-2.87-.12-.37-.42-.56-.95-.53-1.46.02-.51.23-1.04.65-1.41.83-.77,2.11-.72,2.87.12.37.42.56.95.53,1.46-.02.51-.26,1.02-.65,1.41Z"/>
      <path class="cls-5" d="M50.53,21.78c-.37-.42-.56-.95-.53-1.46.02-.53.23-1.04.65-1.41.83-.77,2.11-.72,2.87.12.37.42.56.95.53,1.46-.02.53-.23,1.04-.65,1.41-.81.77-2.11.72-2.87-.12Z"/>
      <path class="cls-4" d="M42.86,44.83c.02-.53.23-1.04.65-1.41.83-.77,2.11-.72,2.87.12.37.42.56.95.53,1.46-.02.53-.23,1.04-.65,1.41-.83.77-2.11.72-2.87-.12-.39-.42-.56-.95-.53-1.46Z"/>
      <path class="cls-5" d="M18.1,48.89c.83-.77,2.11-.72,2.87.12.37.42.56.95.53,1.46-.02.51-.23,1.04-.65,1.41-.83.77-2.11.72-2.87-.12-.37-.42-.56-.95-.53-1.46.02-.51.25-1.04.65-1.41Z"/>
    </g>
  </g>
  <g>
    <path class="cls-1" d="M65.86,15.24h9.62c5.96,0,10.1,2.78,10.1,8.73s-3.89,8.7-11.32,8.7h-3.07v6.99h-5.33V15.24ZM71.19,19.42v8.99h3.33c2.07,0,5.66,0,5.66-4.51s-3.74-4.48-5.03-4.48h-3.96Z"/>
    <path class="cls-1" d="M88.62,20.23h5.33v19.43h-5.33v-19.43Z"/>
    <path class="cls-1" d="M137.6,30.3c0-6,3.33-10.58,9.58-10.58s9.36,4.25,8.73,11.14l-13.17.11c.26,3.63,2.04,5.25,4.85,5.25s3.66-1.59,3.88-3.29l4.74.78c-.44,3.51-2.92,6.47-8.66,6.47-6.59,0-9.95-3.92-9.95-9.88ZM142.93,28.04l8.14-.11c-.15-2.7-1.7-4.03-3.85-4.03-2.29,0-3.81,1.52-4.29,4.14Z"/>
    <path class="cls-1" d="M159.43,13.46h5.25v26.2h-5.25V13.46Z"/>
    <path class="cls-1" d="M169.68,15.24h8.07c5.55,0,9.62,2.66,9.62,8.25,0,5.25-3.55,8.25-10.84,8.25h-4.11v7.92h-2.74V15.24ZM172.42,17.64v11.66h4.26c2.52,0,7.88,0,7.88-5.92s-5.37-5.74-7.22-5.74h-4.92Z"/>
    <path class="cls-1" d="M191.07,30.48v-9.84h2.74v9.33c0,3.66.22,7.66,4.25,7.66,3.48,0,5.4-3.52,5.77-9.1v-7.88h2.74v19.02h-2.55l.48-6.92h-.48c-.85,5.29-3.18,7.4-6.59,7.4-5.18,0-6.36-4.59-6.36-9.66Z"/>
    <path class="cls-1" d="M211.82,14.2h2.74v25.46h-2.74V14.2Z"/>
    <path class="cls-1" d="M218.89,33.55l2.48-.37c-.3,3.18,2.04,4.59,5.66,4.59,3.18,0,5-1.15,5-3.03,0-2.29-2.41-2.81-5.55-3.44-3.63-.74-7.33-1.63-7.33-5.55,0-3.4,2.81-5.59,7.33-5.59s7.4,2.26,7.44,6.22l-2.48.48c.04-2.92-2.07-4.33-5.11-4.33-2.81,0-4.55,1.15-4.55,3.07,0,2.26,2.44,2.81,5.44,3.37,3.77.74,7.44,1.52,7.44,5.66,0,3.63-3.11,5.51-7.73,5.51-5.14,0-8.25-2.33-8.03-6.59Z"/>
    <path class="cls-1" d="M237.91,30.41c0-5.85,3.07-10.25,8.7-10.25,4.88,0,8.14,3.33,7.88,10.03l-13.88.15v.04c0,4.7,2.15,7.36,6.36,7.36,3.63,0,5.03-2.15,5.4-4.29l2.48.48c-.63,3.85-3.48,6.22-7.96,6.22-5.85,0-8.99-3.89-8.99-9.73ZM240.76,28.26l11.1-.11c-.26-3.59-2.22-5.55-5.25-5.55-3.18,0-5.25,2.15-5.85,5.66Z"/>
  </g>
  <g class="cls-3">
    <polygon class="cls-1" points="91.85 11.47 92.81 11.81 94.55 13.7 94.78 14.69 94.01 17.23 93.31 17.88 90.54 18.5 89.79 18.25 87.98 16.28 87.71 15.31 88.55 12.72 89.27 12.07 91.85 11.47"/>
    <g>
      <path class="cls-4" d="M87.78,15.66c.06.06.08.14.08.22,0,.08-.03.16-.1.21-.12.11-.32.11-.43-.02-.06-.06-.08-.14-.08-.22,0-.08.03-.16.1-.21.12-.12.32-.11.43.02Z"/>
      <path class="cls-4" d="M92.06,13.74s0,.02,0,.02c0,.07.01.14.04.2l-.94.87-.94.87c-.07-.04-.15-.06-.22-.06l-1.02-2.97s.08-.05.12-.09c.04-.03.07-.07.09-.11l2.88,1.26Z"/>
      <path class="cls-4" d="M88.11,16.05l1.45.14c.02.07.05.14.11.2.06.06.12.1.2.12l.03,1.16v.51s-.07.04-.1.07l-1.82-1.97c.06-.07.1-.14.13-.23Z"/>
      <path class="cls-5" d="M88.67,12.75h.03l1.03,2.99s-.02.02-.03.03c-.05.04-.08.09-.11.15l-1.46-.14c-.02-.11-.07-.21-.15-.3-.08-.08-.17-.14-.27-.17l.84-2.58s.08.02.12.02Z"/>
      <path class="cls-4" d="M90.43,16.14c0-.08,0-.16-.04-.23l1.89-1.74c.07.04.15.06.23.06l1.09,3.06s-.08.05-.11.08c-.03.03-.07.07-.09.11l-2.96-1.34Z"/>
      <path class="cls-4" d="M92,11.78c.09.09.2.16.32.18v.05l.03,1.35c-.06.02-.11.05-.15.09-.01.01-.02.02-.03.03l-.98-.43-1.91-.84s0-.02,0-.03c0-.04,0-.08,0-.12l2.58-.6c.02.11.07.22.15.31Z"/>
      <path class="cls-5" d="M94.55,13.7c-.06.05-.1.11-.13.17l-1.5-.18c-.01-.08-.05-.15-.11-.21-.06-.06-.12-.1-.2-.12l-.03-1.39v-.02c.08-.02.16-.07.22-.13l1.74,1.89Z"/>
      <path class="cls-4" d="M93.9,17.21h-.03l-1.1-3.08s.02-.01.03-.02c.05-.04.08-.09.1-.14l1.47.18c0,.14.06.27.15.38.07.08.16.14.26.16l-.77,2.54s-.07-.01-.11-.01Z"/>
      <path class="cls-5" d="M90.43,18.29c-.07-.07-.16-.12-.25-.14l-.04-1.65c.06-.02.11-.05.15-.09.01,0,.02-.02.03-.03l2.98,1.35s0,.02,0,.03c0,.04,0,.08,0,.11l-2.77.62c-.02-.08-.06-.15-.11-.2Z"/>
      <path class="cls-5" d="M89,12.18c0,.08-.03.16-.1.21-.12.11-.32.11-.43-.02-.06-.06-.08-.14-.08-.22,0-.08.03-.16.1-.21.12-.11.32-.11.43.02.06.06.08.14.08.22Z"/>
      <path class="cls-4" d="M92.63,11.61c-.12.11-.32.11-.43-.02-.06-.06-.08-.14-.08-.22,0-.08.03-.16.1-.21.12-.11.32-.11.43.02.06.06.08.14.08.22,0,.08-.04.15-.1.21Z"/>
      <path class="cls-5" d="M94.72,14.34c-.06-.06-.08-.14-.08-.22,0-.08.03-.16.1-.21.12-.11.32-.11.43.02.06.06.08.14.08.22,0,.08-.03.16-.1.21-.12.11-.32.11-.43-.02Z"/>
      <path class="cls-4" d="M93.58,17.78c0-.08.03-.16.1-.21.12-.11.32-.11.43.02.06.06.08.14.08.22,0,.08-.03.16-.1.21-.12.11-.32.11-.43-.02-.06-.06-.08-.14-.08-.22Z"/>
      <path class="cls-5" d="M89.88,18.39c.12-.11.32-.11.43.02.06.06.08.14.08.22,0,.08-.03.16-.1.21-.12.11-.32.11-.43-.02-.06-.06-.08-.14-.08-.22,0-.08.04-.16.1-.21Z"/>
    </g>
  </g>
  <g>
    <path class="cls-1" d="M109.78,29.93l6.37,9.73h-4.28c-1.14,0-2.19-.65-2.69-1.68l-2.65-5.39h-.48l-3.26-2.66-6.33-9.7h4.27c1.15,0,2.2.65,2.7,1.69l2.62,5.38h.52l3.22,2.63Z"/>
    <polygon class="cls-1" points="112.75 20.6 113.71 20.94 115.45 22.83 115.68 23.82 114.91 26.36 114.21 27.01 111.44 27.63 110.69 27.38 108.88 25.41 108.61 24.44 109.45 21.85 110.17 21.2 112.75 20.6"/>
    <polygon class="cls-1" points="101.05 32.21 102.01 32.55 103.75 34.44 103.98 35.43 103.21 37.97 102.51 38.62 99.74 39.24 98.99 38.99 97.18 37.02 96.91 36.05 97.75 33.46 98.47 32.81 101.05 32.21"/>
  </g>
  <g>
    <path class="cls-1" d="M130.81,29.93l6.37,9.73h-4.28c-1.14,0-2.19-.65-2.69-1.68l-2.65-5.39h-.48l-3.26-2.66-6.33-9.7h4.27c1.15,0,2.2.65,2.7,1.69l2.62,5.38h.52l3.22,2.63Z"/>
    <polygon class="cls-1" points="122.08 32.21 123.04 32.55 124.78 34.44 125.01 35.43 124.24 37.97 123.54 38.62 120.77 39.24 120.02 38.99 118.21 37.02 117.94 36.05 118.78 33.46 119.5 32.81 122.08 32.21"/>
    <polygon class="cls-1" points="133.78 20.6 134.74 20.94 136.48 22.83 136.71 23.82 135.94 26.36 135.24 27.01 132.47 27.63 131.72 27.38 129.91 25.41 129.64 24.44 130.48 21.85 131.2 21.2 133.78 20.6"/>
  </g>
</svg>